<?xml version="1.0" encoding="UTF-8"?>
<!DOCTYPE svg PUBLIC "-//W3C//DTD SVG 1.1//EN" "http://www.w3.org/Graphics/SVG/1.1/DTD/svg11.dtd">
<!-- Creator: CorelDRAW 2017 -->
<svg xmlns="http://www.w3.org/2000/svg" xml:space="preserve" width="200px" height="200px" version="1.1" style="shape-rendering:geometricPrecision; text-rendering:geometricPrecision; image-rendering:optimizeQuality; fill-rule:evenodd; clip-rule:evenodd"
viewBox="0 0 136.055 136.055"
 xmlns:xlink="http://www.w3.org/1999/xlink">
 <defs>
  <style type="text/css">
   <![CDATA[
    .fil0 {fill:#0083C4}
    .fil1 {fill:white;fill-rule:nonzero}
   ]]>
  </style>
 </defs>
 <g id="Layer_x0020_1">
  <metadata id="CorelCorpID_0Corel-Layer"/>
  <rect class="fil0" width="136.054" height="136.054"/>
  <path class="fil1" d="M64.104 106.637c-8.925,0 -15.547,-2.359 -19.864,-7.075 -4.318,-4.717 -6.476,-11.465 -6.476,-20.245 0,-4.862 0.471,-10.231 1.415,-16.109 2.031,-13.061 5.678,-22.73 10.938,-29.007 5.261,-6.276 12.935,-9.415 23.021,-9.415 9.578,0 18.249,1.524 26.013,4.572l-2.068 12.735c-7.183,-1.887 -14.222,-2.83 -21.115,-2.83 -4.064,0 -7.365,0.707 -9.905,2.122 -2.54,1.415 -4.698,4.063 -6.476,7.945 -1.778,3.883 -3.284,9.488 -4.517,16.817 -0.871,5.732 -1.306,10.158 -1.306,13.279 0,4.571 1.088,7.836 3.265,9.796 2.177,1.959 5.95,2.938 11.32,2.938 4.499,0 8.217,-0.109 11.156,-0.326 2.939,-0.218 6.222,-0.544 9.85,-0.98l-2.068 12.626c-6.095,2.104 -13.823,3.157 -23.183,3.157z"/>
 </g>
</svg>
