<?xml version="1.0" encoding="UTF-8"?>
<!DOCTYPE svg PUBLIC "-//W3C//DTD SVG 1.1//EN" "http://www.w3.org/Graphics/SVG/1.1/DTD/svg11.dtd">
<!-- Creator: CorelDRAW 2017 -->
<svg xmlns="http://www.w3.org/2000/svg" xml:space="preserve" width="1779px" height="600px" version="1.1" style="shape-rendering:geometricPrecision; text-rendering:geometricPrecision; image-rendering:optimizeQuality; fill-rule:evenodd; clip-rule:evenodd"
viewBox="0 0 1756.08 592.12"
 xmlns:xlink="http://www.w3.org/1999/xlink">
 <defs>
  <style type="text/css">
   <![CDATA[
    .str0 {stroke:#2B2A29;stroke-width:29.6;stroke-linecap:round;stroke-linejoin:round;stroke-miterlimit:22.9256}
    .fil1 {fill:none}
    .fil0 {fill:#FEFEFE}
    .fil2 {fill:#FEFEFE;fill-rule:nonzero}
   ]]>
  </style>
 </defs>
 <g id="Layer_x0020_1">
  <metadata id="CorelCorpID_0Corel-Layer"/>
  <rect class="fil0" x="-0.02" y="-0.02" width="592.12" height="592.12" rx="305.93" ry="305.93"/>
  <polyline class="fil1 str0" points="49.85,383.12 65.91,348.89 74.77,352.69 123.51,260.15 171.13,218.32 217.65,252.97 274.69,201.84 304.04,216.21 317.33,208.6 334.5,223.39 363.3,266.07 410.93,275.79 439.17,259.73 543.28,367.48 "/>
  <path class="fil2" d="M690.79 258.67l42.31 0 0 -63.61 23.31 0c39.72,0 73.4,-19.57 73.4,-63.61 0,-45.48 -33.39,-60.45 -74.55,-60.45l-64.47 0 0 187.67zm42.31 -97.29l0 -56.7 19.57 0c23.03,0 35.69,7.2 35.69,26.77 0,19.57 -11.22,29.93 -34.54,29.93l-20.72 0z"/>
  <path id="1" class="fil2" d="M858.88 258.67l42.31 0 0 -142.77 -42.31 0 0 142.77zm21.01 -163.78c14.39,0 24.47,-9.21 24.47,-22.16 0,-12.95 -10.08,-21.88 -24.47,-21.88 -14.1,0 -24.46,8.93 -24.46,21.88 0,12.95 10.36,22.16 24.46,22.16z"/>
  <polygon id="2" class="fil2" points="930.55,258.67 1045.11,258.67 1045.11,225.57 983.23,225.57 1043.09,138.35 1043.09,115.9 937.17,115.9 937.17,149 990.42,149 930.55,235.93 "/>
  <path id="3" class="fil2" d="M1070.73 311.63l42.31 0 0 -41.73 -1.44 -22.74c10.07,9.49 21.59,14.96 33.96,14.96 30.8,0 60.16,-28.2 60.16,-77.14 0,-44.03 -21.3,-72.53 -55.84,-72.53 -14.97,0 -29.36,7.48 -40.58,17.56l-1.16 0 -2.87 -14.11 -34.54 0 0 195.73zm65.05 -84.05c-7.2,0 -15.26,-2.3 -22.74,-9.21l0 -58.43c8.35,-8.92 15.83,-12.95 24.46,-12.95 16.99,0 24.76,12.95 24.76,38.57 0,29.36 -11.8,42.02 -26.48,42.02z"/>
  <path id="4" class="fil2" d="M1268.47 262.12c16.12,0 29.36,-7.48 41.45,-18.13l1.15 0 2.88 14.68 34.54 0 0 -81.74c0,-43.76 -20.15,-64.48 -56.71,-64.48 -22.45,0 -42.88,7.77 -61.02,18.71l15.26 27.92c13.81,-8.06 25.62,-12.95 37.7,-12.95 15.55,0 21.59,8.06 22.46,20.72 -56.42,5.76 -80.31,22.16 -80.31,52.1 0,24.18 16.41,43.17 42.6,43.17zm14.39 -32.81c-10.07,0 -16.41,-4.32 -16.41,-13.53 0,-10.94 9.79,-19.57 39.73,-23.6l0 25.04c-7.49,7.49 -13.82,12.09 -23.32,12.09z"/>
  <path id="5" class="fil2" d="M1423.04 262.12c9.49,0 16.69,-1.43 21.3,-3.45l-5.19 -31.37c-2.3,0.57 -3.45,0.57 -5.18,0.57 -3.45,0 -7.48,-2.88 -7.48,-11.8l0 -159.17 -42.31 0 0 157.44c0,28.79 9.78,47.78 38.86,47.78z"/>
  <path id="6" class="fil2" d="M1509.39 262.12c19.57,0 32.81,-8.92 44.9,-23.31l0.86 0 3.17 19.86 34.54 0 0 -142.77 -42.31 0 0 94.41c-8.35,11.23 -14.68,15.83 -25.33,15.83 -12.38,0 -17.85,-6.62 -17.85,-27.05l0 -83.19 -42.31 0 0 88.66c0,35.69 13.24,57.56 44.33,57.56z"/>
  <path id="7" class="fil2" d="M1693.89 262.12c16.98,0 35.98,-6.04 50.66,-16.12l-14.11 -25.61c-10.36,6.33 -20.15,9.5 -30.8,9.5 -18.99,0 -33.39,-9.5 -37.13,-30.23l85.49 0c0.86,-3.45 1.73,-11.22 1.73,-18.71 0,-38.85 -20.15,-68.5 -60.74,-68.5 -34.25,0 -67.35,28.5 -67.35,74.84 0,47.2 31.37,74.83 72.25,74.83zm-31.67 -90.38c2.88,-18.13 14.4,-27.05 27.64,-27.05 16.98,0 23.89,11.22 23.89,27.05l-51.53 0z"/>
  <path class="fil2" d="M690.9 484.44l39.47 0c39.27,0 65.59,-21.59 65.59,-67.64 0,-46.05 -26.32,-66.41 -67.23,-66.41l-37.83 0 0 134.05zm30.22 -24.46l0 -85.12 5.76 0c22.82,0 38.03,9.87 38.03,41.94 0,32.07 -15.21,43.18 -38.03,43.18l-5.76 0z"/>
  <path id="1" class="fil2" d="M818.98 484.44l30.22 0 0 -101.97 -30.22 0 0 101.97zm15.01 -116.98c10.28,0 17.48,-6.58 17.48,-15.83 0,-9.25 -7.2,-15.63 -17.48,-15.63 -10.07,0 -17.47,6.38 -17.47,15.63 0,9.25 7.4,15.83 17.47,15.83z"/>
  <path id="2" class="fil2" d="M905.74 486.91c27.35,0 41.94,-14.39 41.94,-32.9 0,-18.71 -14.59,-25.9 -27.54,-30.63 -10.49,-3.91 -19.95,-6.37 -19.95,-12.95 0,-5.14 3.7,-8.02 11.52,-8.02 7.19,0 14.18,3.29 21.58,8.63l13.57 -18.09c-8.84,-6.58 -20.35,-12.95 -35.98,-12.95 -23.64,0 -39.06,12.95 -39.06,31.87 0,16.86 14.6,25.29 26.93,30.01 10.49,4.12 20.77,7.2 20.77,13.98 0,5.35 -3.91,8.64 -12.95,8.64 -8.64,0 -17.07,-3.7 -26.32,-10.69l-13.57 18.91c10.28,8.43 25.7,14.19 39.06,14.19z"/>
  <path id="3" class="fil2" d="M1001.96 486.91c9.87,0 17.27,-2.06 22.62,-3.7l-4.73 -22c-2.67,1.03 -6.38,2.06 -9.66,2.06 -8.02,0 -13.16,-4.73 -13.16,-16.25l0 -40.91 24.46 0 0 -23.64 -24.46 0 0 -27.14 -25.08 0 -3.5 27.14 -15.63 1.23 0 22.41 13.99 0 0 41.32c0,23.65 9.86,39.48 35.15,39.48z"/>
  <path id="4" class="fil2" d="M1041.44 484.44l30.22 0 0 -59.21c5.34,-13.77 14.8,-18.71 22.41,-18.71 4.32,0 7.4,0.62 11.1,1.65l4.94 -26.11c-2.88,-1.24 -6.38,-2.06 -12.13,-2.06 -10.49,0 -21.59,6.58 -28.99,20.35l-0.83 0 -2.05 -17.88 -24.67 0 0 101.97z"/>
  <path id="5" class="fil2" d="M1123.26 484.44l30.22 0 0 -101.97 -30.22 0 0 101.97zm15.01 -116.98c10.28,0 17.48,-6.58 17.48,-15.83 0,-9.25 -7.2,-15.63 -17.48,-15.63 -10.07,0 -17.47,6.38 -17.47,15.63 0,9.25 7.4,15.83 17.47,15.83z"/>
  <path id="6" class="fil2" d="M1233.46 486.91c22,0 42.97,-20.15 42.97,-55.31 0,-31.25 -15.42,-51.6 -40.09,-51.6 -9.46,0 -19.12,4.32 -26.93,11.31l0.82 -15.63 0 -35.36 -30.22 0 0 144.12 23.64 0 2.47 -10.89 0.82 0c8.02,8.84 17.48,13.36 26.52,13.36zm-6.99 -24.67c-5.14,0 -10.9,-1.65 -16.24,-6.58l0 -41.74c5.76,-6.37 11.31,-9.25 17.47,-9.25 12.13,0 17.69,9.25 17.69,27.55 0,20.97 -8.43,30.02 -18.92,30.02z"/>
  <path id="7" class="fil2" d="M1328.45 486.91c13.98,0 23.43,-6.37 32.07,-16.65l0.62 0 2.26 14.18 24.67 0 0 -101.97 -30.22 0 0 67.43c-5.97,8.02 -10.49,11.31 -18.1,11.31 -8.84,0 -12.74,-4.73 -12.74,-19.33l0 -59.41 -30.23 0 0 63.32c0,25.49 9.46,41.12 31.67,41.12z"/>
  <path id="8" class="fil2" d="M1453.86 486.91c9.87,0 17.27,-2.06 22.61,-3.7l-4.72 -22c-2.68,1.03 -6.38,2.06 -9.67,2.06 -8.02,0 -13.16,-4.73 -13.16,-16.25l0 -40.91 24.47 0 0 -23.64 -24.47 0 0 -27.14 -25.08 0 -3.49 27.14 -15.63 1.23 0 22.41 13.98 0 0 41.32c0,23.65 9.87,39.48 35.16,39.48z"/>
  <path id="9" class="fil2" d="M1493.33 484.44l30.23 0 0 -101.97 -30.23 0 0 101.97zm15.01 -116.98c10.28,0 17.48,-6.58 17.48,-15.83 0,-9.25 -7.2,-15.63 -17.48,-15.63 -10.07,0 -17.47,6.38 -17.47,15.63 0,9.25 7.4,15.83 17.47,15.83z"/>
  <path id="10" class="fil2" d="M1593.87 486.91c25.7,0 49.55,-19.53 49.55,-53.46 0,-33.92 -23.85,-53.45 -49.55,-53.45 -25.91,0 -49.75,19.53 -49.75,53.45 0,33.93 23.84,53.46 49.75,53.46zm0 -24.47c-12.54,0 -18.71,-11.3 -18.71,-28.99 0,-17.68 6.17,-28.98 18.71,-28.98 12.33,0 18.71,11.3 18.71,28.98 0,17.69 -6.38,28.99 -18.71,28.99z"/>
  <path id="11" class="fil2" d="M1664.18 484.44l30.22 0 0 -68.87c6.58,-6.38 11.31,-9.87 18.92,-9.87 8.63,0 12.54,4.52 12.54,19.33l0 59.41 30.22 0 0 -63.32c0,-25.5 -9.45,-41.12 -31.66,-41.12 -13.77,0 -24.05,7.2 -32.69,15.42l-0.82 0 -2.06 -12.95 -24.67 0 0 101.97z"/>
 </g>
</svg>
